<svg xmlns="http://www.w3.org/2000/svg" viewBox="0 0 74.5 73.03"><title>Send message</title><path fill="#b8b8b8" d="M57.34,34.74c-10-4.33-17.26-7.58-22.59-10-10.4-4.64-13.19-5.88-15.14-5.88a3.39,3.39,0,0,0-2.76,1.34,3.86,3.86,0,0,0-.31,4.42l7.1,11.84-7.1,11.84a3.88,3.88,0,0,0,.31,4.43,3.39,3.39,0,0,0,2.76,1.35h0c1.94,0,4.72-1.24,15.07-5.86,5.33-2.38,12.62-5.63,22.65-10a1.93,1.93,0,0,0,0-3.55ZM20,22.82c1.55.32,5.67,2.15,13.16,5.49C36.86,30,41.5,32,47.31,34.58H27Zm13.1,21.92c-7.62,3.4-11.73,5.23-13.19,5.49L27,38.44H47.32C41.48,41,36.81,43.09,33.11,44.74Z"/></svg>
